<svg xmlns="http://www.w3.org/2000/svg" viewBox="0 0 24 24" width="24" height="24" style="width:100%;height:100%;transform:translate3d(0,0,0);content-visibility:visible"><defs><clipPath id="a"><path d="M0 0h24v24H0z"/></clipPath><clipPath id="b"><path d="M0 0h600v600H0z"/></clipPath><clipPath id="f"><path d="M0 0h1000v1000H0z"/></clipPath><clipPath id="d"><path d="M0 0h600v600H0z"/></clipPath><mask id="c"><path fill="#FFF" d="M0 0h600v600H0z"/><path d="M481.22 12.796 15.697 481.75s-63.937 67.482-14.56 117.112C55 653 119.68 585.056 119.68 585.056l465.523-468.954S668 34 616.215-15.554c-51.434-49.218-134.995 28.35-134.995 28.35"/></mask></defs><g clip-path="url(#a)"><g clip-path="url(#b)" transform="rotate(.012)scale(.04)" style="display:block"><g style="display:block" mask="url(#c)" clip-path="url(#d)" fill="#FFF"><path d="M99.996 100h275a75 75 0 0 1 75 75v250a75 75 0 0 1-75 75h-275a75 75 0 0 1-75-75V175a75 75 0 0 1 75-75"/><path d="M449.996 227.95c0-9.475 5.35-18.125 13.825-22.35l75-37.5a25 25 0 0 1 36.175 22.35v219.1a25 25 0 0 1-36.175 22.35l-75-37.5a25 25 0 0 1-13.825-22.35l-16.7-72.35z"/></g><g clip-path="url(#f)" style="display:block" transform="translate(-200 -200)"><path stroke-linecap="round" stroke="#FFF" stroke-width="2" d="m-10 10 20-20" fill="none" transform="matrix(25 0 0 25 500 500)" style="display:block"/></g></g></g></svg>