<svg xmlns="http://www.w3.org/2000/svg" viewBox="0 0 24 24" width="24" height="24" style="width:100%;height:100%;transform:translate3d(0,0,0);content-visibility:visible"><defs><clipPath id="a"><path d="M0 0h24v24H0z"/></clipPath><clipPath id="b"><path d="M0 0h600v600H0z"/></clipPath><clipPath id="d"><path d="M0 0h600v600H0z"/></clipPath><mask id="c"><path fill="#fff" d="M0 0h600v600H0z"/><path d="M-132.78 623.796-326.303 817.75l49.665 49.342 54.318 53.964 193.523-193.954s68.474-66.76 15.678-116.988C-70 556-132.78 623.796-132.78 623.796"/></mask></defs><g clip-path="url(#a)"><g clip-path="url(#b)" transform="rotate(.012)scale(.04)" style="display:block"><g style="display:block" mask="url(#c)" clip-path="url(#d)" fill="#FFF"><path d="M100 100h275a75 75 0 0 1 75 75v250a75 75 0 0 1-75 75H100a75 75 0 0 1-75-75V175a75 75 0 0 1 75-75"/><path d="M450 227.95c0-9.475 5.35-18.125 13.825-22.35l75-37.5A25 25 0 0 1 575 190.45v219.1a25 25 0 0 1-36.175 22.35l-75-37.5A25 25 0 0 1 450 372.05L412 300z"/></g></g></g></svg>