<svg xmlns="http://www.w3.org/2000/svg" xmlns:xlink="http://www.w3.org/1999/xlink" viewBox="0 0 24 24" width="24" height="24" style="width:100%;height:100%;transform:translate3d(0,0,0);content-visibility:visible"><defs><clipPath id="c"><path d="M0 0h24v24H0z"/></clipPath><clipPath id="d"><path d="M0 0h600v600H0z"/></clipPath><filter id="a" filterUnits="objectBoundingBox" x="0%" y="0%" width="100%" height="100%"><feComponentTransfer in="SourceGraphic"><feFuncA type="table" tableValues="1.0 0.0"/></feComponentTransfer></filter><path d="M-3.707-6.707a1 1 0 0 1 1.414 0L0-4.414l2.293-2.293a.999.999 0 1 1 1.414 1.414L1.414-3 3.707-.707A.999.999 0 1 1 2.293.707L0-1.586-2.293.707A.999.999 0 1 1-3.707-.707L-1.414-3l-2.293-2.293a1 1 0 0 1 0-1.414" transform="translate(300 299.99)scale(26.8125)" style="display:block" id="b"/><mask id="e" mask-type="alpha"><g filter="url(#a)"><path fill="#fff" opacity="0" d="M0 0h600v600H0z"/><use xlink:href="#b"/></g></mask></defs><g clip-path="url(#c)"><g clip-path="url(#d)" transform="rotate(.012)scale(.04)" style="display:block"><path fill="#FFF" d="M1 7.5a.5.5 0 0 0 .5.5H3a1 1 0 0 1 0 2h-6a1 1 0 0 1 0-2h1.5a.5.5 0 0 0 .5-.5v-2A.5.5 0 0 1-.5 5h1a.5.5 0 0 1 .5.5z" transform="translate(300 300)scale(26.8125)" style="display:block"/><g mask="url(#e)" style="display:block"><path fill="#FFF" d="M31.875 112.303a80.44 80.44 0 0 1 80.438-80.438h375.375a80.44 80.44 0 0 1 80.437 80.438v214.5a80.44 80.44 0 0 1-80.437 80.437H112.313a80.44 80.44 0 0 1-80.438-80.437z"/></g></g></g></svg>